<?xml version="1.0" encoding="UTF-8"?>
<!DOCTYPE svg PUBLIC "-//W3C//DTD SVG 1.1//EN" "http://www.w3.org/Graphics/SVG/1.1/DTD/svg11.dtd">
<!-- Creator: Stimoroll -->
<svg xmlns="http://www.w3.org/2000/svg" xml:space="preserve" width="110mm" height="110mm" style="shape-rendering:geometricPrecision; text-rendering:geometricPrecision; image-rendering:optimizeQuality; fill-rule:evenodd; clip-rule:evenodd"
viewBox="0 0 110 110"
 xmlns:xlink="http://www.w3.org/1999/xlink"
 inkscape:version="0.39cvs"
 sodipodi:docbase="C:\WINDOWS\Desktop"
 sodipodi:docname="mecanic.svg"
 sodipodi:version="0.32"
 xmlns:cc="http://web.resource.org/cc/"
 xmlns:dc="http://purl.org/dc/elements/1.1/"
 xmlns:inkscape="http://www.inkscape.org/namespaces/inkscape"
 xmlns:rdf="http://www.w3.org/1999/02/22-rdf-syntax-ns#"
 xmlns:sodipodi="http://sodipodi.sourceforge.net/DTD/sodipodi-0.dtd">
 <defs>
  <style type="text/css">
   <![CDATA[
    .str0 {stroke:black;stroke-width:1.0914;stroke-linecap:round;stroke-linejoin:round}
    .fil0 {fill:#00C0E9}
   ]]>
  </style>
 </defs>
 <g id="Warstwa_x0020_1">
  <metadata id="0Layer"/>
  <metadata>
   <rdf:RDF xmlns:cc="http://web.resource.org/cc/" xmlns:dc="http://purl.org/dc/elements/1.1/" xmlns:rdf="http://www.w3.org/1999/02/22-rdf-syntax-ns#">
    <cc:Work rdf:about="">
     <dc:title>
      engrenagem     </dc:title>
     <dc:description/>
     <dc:subject>
      <rdf:Bag>
       <rdf:li>
        engine       </rdf:li>
       <rdf:li>
        mecanica       </rdf:li>
       <rdf:li>
        engrenagem       </rdf:li>
       <rdf:li>
        shape       </rdf:li>
       <rdf:li>
        svg       </rdf:li>
      </rdf:Bag>
     </dc:subject>
     <dc:publisher>
      <cc:Agent rdf:about="http://www.openclipart.org/">
       <dc:title>
        Open Clip Art Library       </dc:title>
      </cc:Agent>
     </dc:publisher>
     <dc:creator>
      <cc:Agent>
       <dc:title>
        Sérgio Luiz Araújo Silva       </dc:title>
      </cc:Agent>
     </dc:creator>
     <dc:rights>
      <cc:Agent>
       <dc:title>
        Sérgio Luiz Araújo Silva       </dc:title>
      </cc:Agent>
     </dc:rights>
     <dc:date/>
     <dc:format>
      image/svg+xml     </dc:format>
     <dc:type rdf:resource="http://purl.org/dc/dcmitype/StillImage"/>
     <cc:license rdf:resource="http://web.resource.org/cc/PublicDomain"/>
     <dc:language>
      en     </dc:language>
    </cc:Work>
    <cc:License rdf:about="http://web.resource.org/cc/PublicDomain">
     <cc:permits rdf:resource="http://web.resource.org/cc/Reproduction"/>
     <cc:permits rdf:resource="http://web.resource.org/cc/Distribution"/>
     <cc:permits rdf:resource="http://web.resource.org/cc/DerivativeWorks"/>
    </cc:License>
   </rdf:RDF>
  </metadata>
  <sodipodi:namedview bordercolor="#666666" borderopacity="1.0" id="base" inkscape:cx="269.95437" inkscape:cy="540.89710" inkscape:pageopacity="0.0" inkscape:pageshadow="2" inkscape:window-height="721" inkscape:window-width="1024" inkscape:window-x="-4" inkscape:window-y="-4" inkscape:zoom="0.80712662" pagecolor="#ffffff"/>
  <path id="path908" class="fil0 str0" d="M48.7051 2.8064l-4.3823 22.6019c-2.2178,0.6508 -0.4376,-0.0621 -2.4279,1.0273l-20.2021 -12.3513 -8.5824 8.5824 12.7268 19.5109c-1.096,1.9968 -0.4977,0.4011 -1.1518,2.6275l-22.6958 4.9401 0 12.1295 22.6012 4.438c0.653,2.2361 0.2736,1.2365 1.3721,3.2416l-12.6954 19.3327 8.5824 8.5824 19.2662 -12.7068c2.0082,1.1026 0.3817,0.3577 2.622,1.0131l5.182 22.8145 12.1378 0 4.4301 -22.5732c2.2405,-0.6569 1.0913,-0.213 3.0994,-1.3171l19.4745 12.6124 8.5824 -8.5824 -12.8662 -19.0583c1.0945,-2.0022 0.7727,-1.3704 1.4233,-3.6025l22.572 -4.4094 0 -12.1378 -22.6131 -4.4362c-0.6546,-2.2219 -0.1605,-0.9433 -1.2553,-2.9363l12.5905 -19.6315 -8.5824 -8.5824 -19.0866 12.8928c-1.9905,-1.0881 -0.9647,-0.6141 -3.1825,-1.2636l-4.8094 -22.7583 -12.1295 0zm23.9147 52.2401c0,9.2519 -7.5087,16.7606 -16.7606,16.7606 -9.2519,0 -16.7606,-7.5087 -16.7606,-16.7606 0,-9.2518 7.5087,-16.7606 16.7606,-16.7606 9.2519,0 16.7606,7.5088 16.7606,16.7606z"/>
 </g>
</svg>
